<?xml version="1.0" encoding="utf-8"?>
<svg version="1.1" xmlns:xlink="http://www.w3.org/1999/xlink" width="136px" height="29px" xmlns="http://www.w3.org/2000/svg">
  <defs>
    <mask fill="white" id="clip164">
      <path d="M 0 28  L 0 0  L 103.114754098363 0  L 135 0  L 135 28  L 0 28  Z " fill-rule="evenodd" />
    </mask>
  </defs>
  <g transform="matrix(1 0 0 1 -50 -447 )">
    <path d="M 0 28  L 0 0  L 103.114754098363 0  L 135 0  L 135 28  L 0 28  Z " fill-rule="nonzero" fill="#f2f2f2" stroke="none" transform="matrix(1 0 0 1 50 447 )" />
    <path d="M 0 28  L 0 0  L 103.114754098363 0  L 135 0  L 135 28  L 0 28  Z " stroke-width="2" stroke="#797979" fill="none" transform="matrix(1 0 0 1 50 447 )" mask="url(#clip164)" />
    <path d="M 132.639522448167 0.489580529269062  L 2.36047755183301 27.5104194707309  M 2.36047755183301 0.489580529269062  L 132.639522448167 27.5104194707309  " stroke-width="1" stroke="#797979" fill="none" transform="matrix(1 0 0 1 50 447 )" mask="url(#clip164)" />
  </g>
</svg>