<?xml version="1.0" encoding="utf-8"?>
<svg version="1.1" xmlns:xlink="http://www.w3.org/1999/xlink" width="19px" height="22px" xmlns="http://www.w3.org/2000/svg">
  <g transform="matrix(1 0 0 1 -238 -410 )">
    <path d="M 14.2994791666667 0.834821428571429  L 18.1588541666667 4.66517857142857  C 18.3897569444444 4.89434523809524  18.5876736111111 5.20535714285714  18.7526041666667 5.59821428571429  C 18.9175347222222 5.99107142857143  19 6.35119047619048  19 6.67857142857143  L 19 20.8214285714286  C 19 21.1488095238095  18.8845486111111 21.4270833333333  18.6536458333333 21.65625  C 18.4227430555556 21.8854166666667  18.1423611111111 22  17.8125 22  L 1.1875 22  C 0.857638888888889 22  0.577256944444445 21.8854166666667  0.346354166666667 21.65625  C 0.115451388888889 21.4270833333333  0 21.1488095238095  0 20.8214285714286  L 0 1.17857142857143  C 0 0.851190476190476  0.115451388888889 0.572916666666666  0.346354166666667 0.34375  C 0.577256944444445 0.114583333333334  0.857638888888889 0  1.1875 0  L 12.2708333333333 0  C 12.6006944444444 0  12.9635416666667 0.081845238095239  13.359375 0.245535714285715  C 13.7552083333333 0.40922619047619  14.0685763888889 0.605654761904761  14.2994791666667 0.834821428571429  Z M 13.173828125 1.93973214285714  C 13.0748697916667 1.84151785714286  12.9058159722222 1.75148809523809  12.6666666666667 1.66964285714286  L 12.6666666666667 6.28571428571429  L 17.3177083333333 6.28571428571429  C 17.2352430555556 6.04836309523809  17.14453125 5.88058035714286  17.0455729166667 5.78236607142857  L 13.173828125 1.93973214285714  Z M 1.58333333333333 20  L 17.4166666666667 20  L 17.4166666666667 7.85714285714286  L 12.2708333333333 7.85714285714286  C 11.9409722222222 7.85714285714286  11.6605902777778 7.74255952380952  11.4296875 7.51339285714286  C 11.1987847222222 7.28422619047619  11.0833333333333 7.00595238095238  11.0833333333333 6.67857142857143  L 11.0833333333333 1.57142857142857  L 1.58333333333333 1.57142857142857  L 1.58333333333333 20  Z M 11.875 11  L 15.8333333333333 14.9285714285714  L 15.8333333333333 18.8571428571429  L 3.16666666666667 18.8571428571429  L 3.16666666666667 16.5  L 5.54166666666667 14.1428571428571  L 7.125 15.7142857142857  L 11.875 11  Z M 7.22395833333333 11.8839285714286  C 6.76215277777778 12.3422619047619  6.20138888888889 12.5714285714286  5.54166666666667 12.5714285714286  C 4.88194444444444 12.5714285714286  4.32118055555556 12.3422619047619  3.859375 11.8839285714286  C 3.39756944444444 11.4255952380952  3.16666666666667 10.8690476190476  3.16666666666667 10.2142857142857  C 3.16666666666667 9.55952380952381  3.39756944444444 9.00297619047619  3.859375 8.54464285714286  C 4.32118055555556 8.08630952380952  4.88194444444444 7.85714285714286  5.54166666666667 7.85714285714286  C 6.20138888888889 7.85714285714286  6.76215277777778 8.08630952380952  7.22395833333333 8.54464285714286  C 7.68576388888889 9.00297619047619  7.91666666666667 9.55952380952381  7.91666666666667 10.2142857142857  C 7.91666666666667 10.8690476190476  7.68576388888889 11.4255952380952  7.22395833333333 11.8839285714286  Z " fill-rule="nonzero" fill="#000000" stroke="none" transform="matrix(1 0 0 1 238 410 )" />
  </g>
</svg>