<?xml version="1.0" encoding="utf-8"?>
<svg version="1.1" xmlns:xlink="http://www.w3.org/1999/xlink" width="19px" height="22px" xmlns="http://www.w3.org/2000/svg">
  <g transform="matrix(1 0 0 1 -238 -450 )">
    <path d="M 6.33333333333333 4.71428571428571  L 7.91666666666667 4.71428571428571  L 7.91666666666667 3.14285714285714  L 6.33333333333333 3.14285714285714  L 6.33333333333333 4.71428571428571  Z M 7.91666666666667 6.28571428571429  L 9.5 6.28571428571429  L 9.5 4.71428571428571  L 7.91666666666667 4.71428571428571  L 7.91666666666667 6.28571428571429  Z M 6.33333333333333 7.85714285714286  L 7.91666666666667 7.85714285714286  L 7.91666666666667 6.28571428571429  L 6.33333333333333 6.28571428571429  L 6.33333333333333 7.85714285714286  Z M 7.91666666666667 9.42857142857143  L 9.5 9.42857142857143  L 9.5 7.85714285714286  L 7.91666666666667 7.85714285714286  L 7.91666666666667 9.42857142857143  Z M 14.2994791666667 0.834821428571429  L 18.1588541666667 4.66517857142857  C 18.3897569444444 4.89434523809524  18.5876736111111 5.20535714285714  18.7526041666667 5.59821428571429  C 18.9175347222222 5.99107142857143  19 6.35119047619048  19 6.67857142857143  L 19 20.8214285714286  C 19 21.1488095238095  18.8845486111111 21.4270833333333  18.6536458333333 21.65625  C 18.4227430555556 21.8854166666667  18.1423611111111 22  17.8125 22  L 1.1875 22  C 0.857638888888889 22  0.577256944444445 21.8854166666667  0.346354166666667 21.65625  C 0.115451388888889 21.4270833333333  0 21.1488095238095  0 20.8214285714286  L 0 1.17857142857143  C 0 0.851190476190476  0.115451388888889 0.572916666666666  0.346354166666667 0.34375  C 0.577256944444445 0.114583333333334  0.857638888888889 0  1.1875 0  L 12.2708333333333 0  C 12.6006944444444 0  12.9635416666667 0.081845238095239  13.359375 0.245535714285715  C 13.7552083333333 0.40922619047619  14.0685763888889 0.605654761904761  14.2994791666667 0.834821428571429  Z M 13.173828125 1.93973214285714  C 13.0748697916667 1.84151785714286  12.9058159722222 1.75148809523809  12.6666666666667 1.66964285714286  L 12.6666666666667 6.28571428571429  L 17.3177083333333 6.28571428571429  C 17.2352430555556 6.04836309523809  17.14453125 5.88058035714286  17.0455729166667 5.78236607142857  L 13.173828125 1.93973214285714  Z M 1.58333333333333 20  L 17.4166666666667 20  L 17.4166666666667 7.85714285714286  L 12.2708333333333 7.85714285714286  C 11.9409722222222 7.85714285714286  11.6605902777778 7.74255952380952  11.4296875 7.51339285714286  C 11.1987847222222 7.28422619047619  11.0833333333333 7.00595238095238  11.0833333333333 6.67857142857143  L 11.0833333333333 1.57142857142857  L 9.5 1.57142857142857  L 9.5 3.14285714285714  L 7.91666666666667 3.14285714285714  L 7.91666666666667 1.57142857142857  L 1.58333333333333 1.57142857142857  L 1.58333333333333 20  Z M 9.37630208333333 11.1595982142857  C 9.51649305555556 11.2659970238095  9.611328125 11.4051339285714  9.66080729166667 11.5770089285714  L 10.984375 15.8616071428571  C 11.0503472222222 16.0825892857143  11.0833333333333 16.2953869047619  11.0833333333333 16.5  C 11.0833333333333 17.1793154761905  10.7843967013889 17.7420014880952  10.1865234375 18.1880580357143  C 9.58865017361111 18.6341145833333  8.83203125 18.8571428571429  7.91666666666667 18.8571428571429  C 7.00130208333333 18.8571428571429  6.24468315972222 18.6341145833333  5.64680989583333 18.1880580357143  C 5.04893663194444 17.7420014880952  4.75 17.1793154761905  4.75 16.5  C 4.75 16.2953869047619  4.78298611111111 16.0825892857143  4.84895833333333 15.8616071428571  C 5.02213541666667 15.3459821428571  5.51692708333333 13.7254464285714  6.33333333333333 11  L 6.33333333333333 9.42857142857143  L 7.91666666666667 9.42857142857143  L 7.91666666666667 11  L 8.89388020833333 11  C 9.07530381944444 11  9.23611111111111 11.0531994047619  9.37630208333333 11.1595982142857  Z M 6.79720052083333 17.0524553571429  C 7.1064453125 17.2079613095238  7.47960069444444 17.2857142857143  7.91666666666667 17.2857142857143  C 8.35373263888889 17.2857142857143  8.72688802083333 17.2079613095238  9.0361328125 17.0524553571429  C 9.34537760416667 16.8969494047619  9.5 16.7127976190476  9.5 16.5  C 9.5 16.2872023809524  9.34537760416667 16.1030505952381  9.0361328125 15.9475446428571  C 8.72688802083333 15.7920386904762  8.35373263888889 15.7142857142857  7.91666666666667 15.7142857142857  C 7.47960069444444 15.7142857142857  7.1064453125 15.7920386904762  6.79720052083333 15.9475446428571  C 6.48795572916667 16.1030505952381  6.33333333333333 16.2872023809524  6.33333333333333 16.5  C 6.33333333333333 16.7127976190476  6.48795572916667 16.8969494047619  6.79720052083333 17.0524553571429  Z " fill-rule="nonzero" fill="#000000" stroke="none" transform="matrix(1 0 0 1 238 450 )" />
  </g>
</svg>