<?xml version="1.0" encoding="utf-8"?>
<svg version="1.1" xmlns:xlink="http://www.w3.org/1999/xlink" width="19px" height="22px" xmlns="http://www.w3.org/2000/svg">
  <g transform="matrix(1 0 0 1 -238 -374 )">
    <path d="M 7.48619791666667 10.0018028846154  C 8.04366319444445 9.25701121794872  8.71493055555556 8.88461538461538  9.5 8.88461538461539  C 10.2850694444444 8.88461538461538  10.9563368055556 9.25701121794872  11.5138020833333 10.0018028846154  C 12.0712673611111 10.7465945512821  12.35 11.6434294871795  12.35 12.6923076923077  C 12.35 13.7411858974359  12.0712673611111 14.6380208333333  11.5138020833333 15.3828125  C 10.9563368055556 16.1276041666667  10.2850694444444 16.5  9.5 16.5  C 8.71493055555556 16.5  8.04366319444445 16.1276041666667  7.48619791666667 15.3828125  C 6.92873263888889 14.6380208333333  6.65 13.7411858974359  6.65 12.6923076923077  C 6.65 11.6434294871795  6.92873263888889 10.7465945512821  7.48619791666667 10.0018028846154  Z M 14.25 3.38461538461539  L 16.4666666666667 3.38461538461539  C 17.1659722222222 3.38461538461539  17.7630208333333 3.71514423076923  18.2578125 4.37620192307692  C 18.7526041666667 5.03725961538462  19 5.8349358974359  19 6.76923076923077  L 19 18.6153846153846  C 19 19.5496794871795  18.7526041666667 20.3473557692308  18.2578125 21.0084134615385  C 17.7630208333333 21.6694711538462  17.1659722222222 22  16.4666666666667 22  L 2.53333333333333 22  C 1.83402777777778 22  1.23697916666667 21.6694711538462  0.7421875 21.0084134615385  C 0.247395833333333 20.3473557692308  0 19.5496794871795  0 18.6153846153846  L 0 6.76923076923077  C 0 5.8349358974359  0.247395833333333 5.03725961538462  0.7421875 4.37620192307692  C 1.23697916666667 3.71514423076923  1.83402777777778 3.38461538461539  2.53333333333333 3.38461538461539  L 4.75 3.38461538461539  L 5.2546875 1.58653846153846  C 5.38003472222222 1.15464743589744  5.60928819444444 0.782251602564101  5.94244791666667 0.469350961538461  C 6.27560763888889 0.156450320512823  6.61701388888889 0  6.96666666666667 0  L 12.0333333333333 0  C 12.3829861111111 0  12.7243923611111 0.156450320512823  13.0575520833333 0.469350961538461  C 13.3907118055556 0.782251602564101  13.6199652777778 1.15464743589744  13.7453125 1.58653846153846  L 14.25 3.38461538461539  Z M 6.36796875 16.8768028846154  C 7.23550347222222 18.0358573717949  8.27951388888889 18.6153846153846  9.5 18.6153846153846  C 10.7204861111111 18.6153846153846  11.7644965277778 18.0358573717949  12.63203125 16.8768028846154  C 13.4995659722222 15.7177483974359  13.9333333333333 14.3229166666667  13.9333333333333 12.6923076923077  C 13.9333333333333 11.0616987179487  13.4995659722222 9.66686698717949  12.63203125 8.5078125  C 11.7644965277778 7.34875801282051  10.7204861111111 6.76923076923077  9.5 6.76923076923077  C 8.27951388888889 6.76923076923077  7.23550347222222 7.34875801282051  6.36796875 8.5078125  C 5.50043402777778 9.66686698717949  5.06666666666667 11.0616987179487  5.06666666666667 12.6923076923077  C 5.06666666666667 14.3229166666667  5.50043402777778 15.7177483974359  6.36796875 16.8768028846154  Z " fill-rule="nonzero" fill="#000000" stroke="none" transform="matrix(1 0 0 1 238 374 )" />
  </g>
</svg>