<?xml version="1.0" encoding="utf-8"?>
<svg version="1.1" xmlns:xlink="http://www.w3.org/1999/xlink" width="22px" height="21px" xmlns="http://www.w3.org/2000/svg">
  <g transform="matrix(1 0 0 1 -22 -16 )">
    <path d="M 21.4814814814815 15.6969696969697  C 21.8271604938272 16.026936026936  22 16.4276094276094  22 16.8989898989899  C 22 17.3703703703704  21.8271604938272 17.7710437710438  21.4814814814815 18.1010101010101  L 18.962962962963 20.5050505050505  C 18.6172839506173 20.8350168350168  18.1975308641975 21  17.7037037037037 21  C 17.2098765432099 21  16.7901234567901 20.8350168350168  16.4444444444444 20.5050505050505  L 11 15.3080808080808  L 5.55555555555556 20.5050505050505  C 5.20987654320988 20.8350168350168  4.79012345679012 21  4.2962962962963 21  C 3.80246913580247 21  3.38271604938272 20.8350168350168  3.03703703703704 20.5050505050505  L 0.518518518518518 18.1010101010101  C 0.17283950617284 17.7710437710438  0 17.3703703703704  0 16.8989898989899  C 0 16.4276094276094  0.17283950617284 16.026936026936  0.518518518518518 15.6969696969697  L 5.96296296296296 10.5  L 0.518518518518518 5.3030303030303  C 0.17283950617284 4.97306397306397  0 4.57239057239057  0 4.1010101010101  C 0 3.62962962962963  0.17283950617284 3.22895622895623  0.518518518518518 2.8989898989899  L 3.03703703703704 0.494949494949495  C 3.38271604938272 0.164983164983164  3.80246913580247 0  4.2962962962963 0  C 4.79012345679012 0  5.20987654320988 0.164983164983164  5.55555555555556 0.494949494949495  L 11 5.69191919191919  L 16.4444444444444 0.494949494949495  C 16.7901234567901 0.164983164983164  17.2098765432099 0  17.7037037037037 0  C 18.1975308641975 0  18.6172839506173 0.164983164983164  18.962962962963 0.494949494949495  L 21.4814814814815 2.8989898989899  C 21.8271604938272 3.22895622895623  22 3.62962962962963  22 4.1010101010101  C 22 4.57239057239057  21.8271604938272 4.97306397306397  21.4814814814815 5.3030303030303  L 16.037037037037 10.5  L 21.4814814814815 15.6969696969697  Z " fill-rule="nonzero" fill="#000000" stroke="none" fill-opacity="0.811764705882353" transform="matrix(1 0 0 1 22 16 )" />
  </g>
</svg>