<?xml version="1.0" encoding="utf-8"?>
<svg version="1.1" xmlns:xlink="http://www.w3.org/1999/xlink" width="28px" height="26px" xmlns="http://www.w3.org/2000/svg">
  <g transform="matrix(1 0 0 1 -339 -9 )">
    <path d="M 23.078125 11.01953125  C 23.296875 10.81640625  23.40625 10.5625  23.40625 10.2578125  C 23.40625 9.94184027777778  23.296875 9.68229166666667  23.078125 9.47916666666667  L 21.4192708333333 7.95572916666667  C 21.1883680555556 7.74131944444444  20.9149305555556 7.63411458333333  20.5989583333333 7.63411458333333  C 20.2829861111111 7.63411458333333  20.0095486111111 7.74131944444444  19.7786458333333 7.95572916666667  L 12.3411458333333 14.8450520833333  L 8.22135416666667 11.01953125  C 7.99045138888889 10.8051215277778  7.71701388888889 10.6979166666667  7.40104166666667 10.6979166666667  C 7.08506944444445 10.6979166666667  6.81163194444444 10.8051215277778  6.58072916666667 11.01953125  L 4.921875 12.54296875  C 4.703125 12.74609375  4.59375 13.0056423611111  4.59375 13.3216145833333  C 4.59375 13.6263020833333  4.703125 13.8802083333333  4.921875 14.0833333333333  L 11.5208333333333 20.2109375  C 11.7517361111111 20.4253472222222  12.0251736111111 20.5325520833333  12.3411458333333 20.5325520833333  C 12.6692708333333 20.5325520833333  12.9487847222222 20.4253472222222  13.1796875 20.2109375  L 23.078125 11.01953125  Z M 26.1223958333333 6.474609375  C 27.3741319444444 8.46636284722222  28 10.6414930555556  28 13  C 28 15.3585069444444  27.3741319444444 17.5336371527778  26.1223958333333 19.525390625  C 24.8706597222222 21.5171440972222  23.1723090277778 23.0941840277778  21.02734375 24.2565104166667  C 18.8823784722222 25.4188368055556  16.5399305555556 26  14 26  C 11.4600694444444 26  9.11762152777778 25.4188368055556  6.97265625 24.2565104166667  C 4.82769097222222 23.0941840277778  3.12934027777778 21.5171440972222  1.87760416666667 19.525390625  C 0.625868055555555 17.5336371527778  0 15.3585069444444  0 13  C 0 10.6414930555556  0.625868055555555 8.46636284722222  1.87760416666667 6.474609375  C 3.12934027777778 4.48285590277778  4.82769097222222 2.90581597222222  6.97265625 1.74348958333333  C 9.11762152777778 0.581163194444442  11.4600694444444 0  14 0  C 16.5399305555556 0  18.8823784722222 0.581163194444442  21.02734375 1.74348958333333  C 23.1723090277778 2.90581597222222  24.8706597222222 4.48285590277778  26.1223958333333 6.474609375  Z " fill-rule="nonzero" fill="#7f7f7f" stroke="none" fill-opacity="0.894117647058824" transform="matrix(1 0 0 1 339 9 )" />
  </g>
</svg>