<?xml version="1.0" encoding="utf-8"?>
<svg version="1.1" xmlns:xlink="http://www.w3.org/1999/xlink" width="36px" height="33px" xmlns="http://www.w3.org/2000/svg">
  <g transform="matrix(1 0 0 1 -294 -598 )">
    <path d="M 22.078125 20.23828125  C 23.9747596153846 18.4996995192308  24.9230769230769 16.4074519230769  24.9230769230769 13.9615384615385  C 24.9230769230769 11.515625  23.9747596153846 9.42337740384615  22.078125 7.68479567307692  C 20.1814903846154 5.94621394230769  17.8990384615385 5.07692307692308  15.2307692307692 5.07692307692308  C 12.5625 5.07692307692308  10.2800480769231 5.94621394230769  8.38341346153846 7.68479567307692  C 6.48677884615385 9.42337740384615  5.53846153846154 11.515625  5.53846153846154 13.9615384615385  C 5.53846153846154 16.4074519230769  6.48677884615385 18.4996995192308  8.38341346153846 20.23828125  C 10.2800480769231 21.9768629807692  12.5625 22.8461538461538  15.2307692307692 22.8461538461538  C 17.8990384615385 22.8461538461538  20.1814903846154 21.9768629807692  22.078125 20.23828125  Z M 35.1995192307692 28.6766826923077  C 35.7331730769231 29.1658653846154  36 29.7608173076923  36 30.4615384615385  C 36 31.1490384615385  35.7259615384615 31.7439903846154  35.1778846153846 32.2463942307692  C 34.6298076923077 32.7487980769231  33.9807692307692 33  33.2307692307692 33  C 32.4519230769231 33  31.8028846153846 32.7487980769231  31.2836538461538 32.2463942307692  L 23.8629807692308 25.4639423076923  C 21.28125 27.1033653846154  18.4038461538462 27.9230769230769  15.2307692307692 27.9230769230769  C 13.1682692307692 27.9230769230769  11.1959134615385 27.5561899038462  9.31370192307692 26.8224158653846  C 7.43149038461539 26.0886418269231  5.80889423076923 25.0970552884615  4.44591346153846 23.84765625  C 3.08293269230769 22.5982572115385  2.00120192307692 21.1108774038462  1.20072115384615 19.3855168269231  C 0.400240384615385 17.66015625  0 15.8521634615385  0 13.9615384615385  C 0 12.0709134615385  0.400240384615385 10.2629206730769  1.20072115384615 8.53756009615384  C 2.00120192307692 6.81219951923077  3.08293269230769 5.32481971153846  4.44591346153846 4.07542067307692  C 5.80889423076923 2.82602163461539  7.43149038461539 1.83443509615385  9.31370192307692 1.10066105769231  C 11.1959134615385 0.366887019230768  13.1682692307692 0  15.2307692307692 0  C 17.2932692307692 0  19.265625 0.366887019230768  21.1478365384615 1.10066105769231  C 23.0300480769231 1.83443509615385  24.6526442307692 2.82602163461539  26.015625 4.07542067307692  C 27.3786057692308 5.32481971153846  28.4603365384615 6.81219951923077  29.2608173076923 8.53756009615384  C 30.0612980769231 10.2629206730769  30.4615384615385 12.0709134615385  30.4615384615385 13.9615384615385  C 30.4615384615385 16.8701923076923  29.5673076923077 19.5078125  27.7788461538462 21.8743990384615  L 35.1995192307692 28.6766826923077  Z " fill-rule="nonzero" fill="#000000" stroke="none" transform="matrix(1 0 0 1 294 598 )" />
  </g>
</svg>