<?xml version="1.0" encoding="utf-8"?>
<svg version="1.1" xmlns:xlink="http://www.w3.org/1999/xlink" width="32px" height="35px" xmlns="http://www.w3.org/2000/svg">
  <g transform="matrix(1 0 0 1 -49 -598 )">
    <path d="M 31.6041666666667 28.51953125  C 31.8680555555556 28.8658854166667  32 29.2760416666667  32 29.75  L 32 33.25  C 32 33.7239583333333  31.8680555555556 34.1341145833333  31.6041666666667 34.48046875  C 31.3402777777778 34.8268229166667  31.0277777777778 35  30.6666666666667 35  L 1.33333333333333 35  C 0.972222222222222 35  0.659722222222222 34.8268229166667  0.395833333333333 34.48046875  C 0.131944444444444 34.1341145833333  0 33.7239583333333  0 33.25  L 0 29.75  C 0 29.2760416666667  0.131944444444444 28.8658854166667  0.395833333333333 28.51953125  C 0.659722222222222 28.1731770833333  0.972222222222222 28  1.33333333333333 28  L 30.6666666666667 28  C 31.0277777777778 28  31.3402777777778 28.1731770833333  31.6041666666667 28.51953125  Z M 31.6041666666667 14.51953125  C 31.8680555555556 14.8658854166667  32 15.2760416666667  32 15.75  L 32 19.25  C 32 19.7239583333333  31.8680555555556 20.1341145833333  31.6041666666667 20.48046875  C 31.3402777777778 20.8268229166667  31.0277777777778 21  30.6666666666667 21  L 1.33333333333333 21  C 0.972222222222222 21  0.659722222222222 20.8268229166667  0.395833333333333 20.48046875  C 0.131944444444444 20.1341145833333  0 19.7239583333333  0 19.25  L 0 15.75  C 0 15.2760416666667  0.131944444444444 14.8658854166667  0.395833333333333 14.51953125  C 0.659722222222222 14.1731770833333  0.972222222222222 14  1.33333333333333 14  L 30.6666666666667 14  C 31.0277777777778 14  31.3402777777778 14.1731770833333  31.6041666666667 14.51953125  Z M 31.6041666666667 0.519531250000002  C 31.8680555555556 0.865885416666664  32 1.27604166666666  32 1.75  L 32 5.25  C 32 5.72395833333333  31.8680555555556 6.13411458333333  31.6041666666667 6.48046875  C 31.3402777777778 6.82682291666666  31.0277777777778 7  30.6666666666667 7  L 1.33333333333333 7  C 0.972222222222222 7  0.659722222222222 6.82682291666666  0.395833333333333 6.48046875  C 0.131944444444444 6.13411458333333  0 5.72395833333333  0 5.25  L 0 1.75  C 0 1.27604166666666  0.131944444444444 0.865885416666664  0.395833333333333 0.519531250000002  C 0.659722222222222 0.173177083333331  0.972222222222222 0  1.33333333333333 0  L 30.6666666666667 0  C 31.0277777777778 0  31.3402777777778 0.173177083333331  31.6041666666667 0.519531250000002  Z " fill-rule="nonzero" fill="#000000" stroke="none" transform="matrix(1 0 0 1 49 598 )" />
  </g>
</svg>