<?xml version="1.0" encoding="utf-8"?>
<svg version="1.1" xmlns:xlink="http://www.w3.org/1999/xlink" width="34px" height="36px" xmlns="http://www.w3.org/2000/svg">
  <g transform="matrix(1 0 0 1 -324 -10 )">
    <path d="M 33.1986531986532 26.9090909090909  C 33.7328843995511 27.4747474747475  34 28.1616161616162  34 28.969696969697  C 34 29.7777777777778  33.7328843995511 30.4646464646465  33.1986531986532 31.030303030303  L 29.3063973063973 35.1515151515151  C 28.7721661054994 35.7171717171717  28.1234567901235 36  27.3602693602694 36  C 26.5970819304153 36  25.9483726150393 35.7171717171717  25.4141414141414 35.1515151515151  L 17 26.2424242424242  L 8.58585858585859 35.1515151515151  C 8.05162738496072 35.7171717171717  7.40291806958474 36  6.63973063973064 36  C 5.87654320987654 36  5.22783389450056 35.7171717171717  4.69360269360269 35.1515151515151  L 0.801346801346801 31.030303030303  C 0.267115600448934 30.4646464646465  0 29.7777777777778  0 28.969696969697  C 0 28.1616161616162  0.267115600448934 27.4747474747475  0.801346801346801 26.9090909090909  L 9.21548821548821 18  L 0.801346801346801 9.09090909090909  C 0.267115600448934 8.52525252525252  0 7.83838383838384  0 7.03030303030303  C 0 6.22222222222222  0.267115600448934 5.53535353535353  0.801346801346801 4.96969696969697  L 4.69360269360269 0.848484848484849  C 5.22783389450056 0.282828282828282  5.87654320987654 0  6.63973063973064 0  C 7.40291806958474 0  8.05162738496072 0.282828282828282  8.58585858585859 0.848484848484849  L 17 9.75757575757576  L 25.4141414141414 0.848484848484849  C 25.9483726150393 0.282828282828282  26.5970819304153 0  27.3602693602694 0  C 28.1234567901235 0  28.7721661054994 0.282828282828282  29.3063973063973 0.848484848484849  L 33.1986531986532 4.96969696969697  C 33.7328843995511 5.53535353535353  34 6.22222222222222  34 7.03030303030303  C 34 7.83838383838384  33.7328843995511 8.52525252525252  33.1986531986532 9.09090909090909  L 24.7845117845118 18  L 33.1986531986532 26.9090909090909  Z " fill-rule="nonzero" fill="#000000" stroke="none" transform="matrix(1 0 0 1 324 10 )" />
  </g>
</svg>