<?xml version="1.0" encoding="utf-8"?>
<svg version="1.1" xmlns:xlink="http://www.w3.org/1999/xlink" width="33px" height="28px" xmlns="http://www.w3.org/2000/svg">
  <g transform="matrix(1 0 0 1 -23 -19 )">
    <path d="M 32.591796875 22.815625  C 32.8639322916667 23.0927083333333  33 23.4208333333333  33 23.8  L 33 26.6  C 33 26.9791666666667  32.8639322916667 27.3072916666667  32.591796875 27.584375  C 32.3196614583333 27.8614583333333  31.9973958333333 28  31.625 28  L 1.375 28  C 1.00260416666667 28  0.680338541666667 27.8614583333333  0.408203125 27.584375  C 0.136067708333333 27.3072916666667  0 26.9791666666667  0 26.6  L 0 23.8  C 0 23.4208333333333  0.136067708333333 23.0927083333333  0.408203125 22.815625  C 0.680338541666667 22.5385416666667  1.00260416666667 22.4  1.375 22  L 31.625 22  C 31.9973958333333 22.4  32.3196614583333 22.5385416666667  32.591796875 22.815625  Z M 32.591796875 11.615625  C 32.8639322916667 11.8927083333333  33 12.2208333333333  33 12.6  L 33 15.4  C 33 15.7791666666667  32.8639322916667 16.1072916666667  32.591796875 16.384375  C 32.3196614583333 16.6614583333333  31.9973958333333 16.8  31.625 16.8  L 1.375 16.8  C 1.00260416666667 16.8  0.680338541666667 16.6614583333333  0.408203125 16.384375  C 0.136067708333333 16.1072916666667  0 15.7791666666667  0 15.4  L 0 12.6  C 0 12.2208333333333  0.136067708333333 11.8927083333333  0.408203125 11.615625  C 0.680338541666667 11.3385416666667  1.00260416666667 11.2  1.375 11.2  L 31.625 11.2  C 31.9973958333333 11.2  32.3196614583333 11.3385416666667  32.591796875 11.615625  Z M 32.591796875 0.415625000000001  C 32.8639322916667 0.692708333333331  33 1.02083333333333  33 1.4  L 33 4.2  C 33 4.57916666666666  32.8639322916667 4.90729166666666  32.591796875 5.184375  C 32.3196614583333 5.46145833333333  31.9973958333333 5.6  31.625 6  L 1.375 6  C 1.00260416666667 5.6  0.680338541666667 5.46145833333333  0.408203125 5.184375  C 0.136067708333333 4.90729166666666  0 4.57916666666666  0 4.2  L 0 1.4  C 0 1.02083333333333  0.136067708333333 0.692708333333331  0.408203125 0.415625000000001  C 0.680338541666667 0.138541666666665  1.00260416666667 0  1.375 0  L 31.625 0  C 31.9973958333333 0  32.3196614583333 0.138541666666665  32.591796875 0.415625000000001  Z " fill-rule="nonzero" fill="#000000" stroke="none" transform="matrix(1 0 0 1 23 19 )" />
  </g>
</svg>