<?xml version="1.0" encoding="utf-8"?>
<svg version="1.1" xmlns:xlink="http://www.w3.org/1999/xlink" width="36px" height="40px" xmlns="http://www.w3.org/2000/svg">
  <g transform="matrix(1 0 0 1 -39 -76 )">
    <path d="M 22.078125 24.53125  C 23.9747596153846 22.4238782051282  24.9230769230769 19.8878205128205  24.9230769230769 16.9230769230769  C 24.9230769230769 13.9583333333333  23.9747596153846 11.4222756410256  22.078125 9.31490384615385  C 20.1814903846154 7.20753205128205  17.8990384615385 6.15384615384615  15.2307692307692 6.15384615384615  C 12.5625 6.15384615384615  10.2800480769231 7.20753205128205  8.38341346153846 9.31490384615385  C 6.48677884615385 11.4222756410256  5.53846153846154 13.9583333333333  5.53846153846154 16.9230769230769  C 5.53846153846154 19.8878205128205  6.48677884615385 22.4238782051282  8.38341346153846 24.53125  C 10.2800480769231 26.6386217948718  12.5625 27.6923076923077  15.2307692307692 27.6923076923077  C 17.8990384615385 27.6923076923077  20.1814903846154 26.6386217948718  22.078125 24.53125  Z M 35.1995192307692 34.7596153846154  C 35.7331730769231 35.3525641025641  36 36.0737179487179  36 36.9230769230769  C 36 37.7564102564103  35.7259615384615 38.4775641025641  35.1778846153846 39.0865384615385  C 34.6298076923077 39.6955128205128  33.9807692307692 40  33.2307692307692 40  C 32.4519230769231 40  31.8028846153846 39.6955128205128  31.2836538461538 39.0865384615385  L 23.8629807692308 30.8653846153846  C 21.28125 32.8525641025641  18.4038461538462 33.8461538461538  15.2307692307692 33.8461538461538  C 13.1682692307692 33.8461538461538  11.1959134615385 33.4014423076923  9.31370192307692 32.5120192307692  C 7.43149038461539 31.6225961538462  5.80889423076923 30.4206730769231  4.44591346153846 28.90625  C 3.08293269230769 27.3918269230769  2.00120192307692 25.5889423076923  1.20072115384615 23.4975961538462  C 0.400240384615385 21.40625  0 19.2147435897436  0 16.9230769230769  C 0 14.6314102564103  0.400240384615385 12.4399038461538  1.20072115384615 10.3485576923077  C 2.00120192307692 8.25721153846154  3.08293269230769 6.45432692307693  4.44591346153846 4.93990384615385  C 5.80889423076923 3.42548076923077  7.43149038461539 2.22355769230769  9.31370192307692 1.33413461538462  C 11.1959134615385 0.444711538461537  13.1682692307692 0  15.2307692307692 0  C 17.2932692307692 0  19.265625 0.444711538461537  21.1478365384615 1.33413461538462  C 23.0300480769231 2.22355769230769  24.6526442307692 3.42548076923077  26.015625 4.93990384615385  C 27.3786057692308 6.45432692307693  28.4603365384615 8.25721153846154  29.2608173076923 10.3485576923077  C 30.0612980769231 12.4399038461538  30.4615384615385 14.6314102564103  30.4615384615385 16.9230769230769  C 30.4615384615385 20.4487179487179  29.5673076923077 23.6458333333333  27.7788461538462 26.5144230769231  L 35.1995192307692 34.7596153846154  Z " fill-rule="nonzero" fill="#000000" stroke="none" transform="matrix(1 0 0 1 39 76 )" />
  </g>
</svg>