<?xml version="1.0" encoding="utf-8"?>
<svg version="1.1" xmlns:xlink="http://www.w3.org/1999/xlink" width="24px" height="30px" xmlns="http://www.w3.org/2000/svg">
  <g transform="matrix(1 0 0 1 -317 -81 )">
    <path d="M 23.6041666666667 11.8810096153846  C 23.8680555555556 12.109375  24 12.3798076923077  24 12.6923076923077  L 24 15  C 24 17.65625  22.9756944444444 19.9669471153846  20.9270833333333 21.9320913461538  C 18.8784722222222 23.8972355769231  16.3472222222222 25.0240384615385  13.3333333333333 25.3125  L 13.3333333333333 27.6923076923077  L 18.6666666666667 27.6923076923077  C 19.0277777777778 27.6923076923077  19.3402777777778 27.8064903846154  19.6041666666667 28.0348557692308  C 19.8680555555556 28.2632211538462  20 28.5336538461538  20 28.8461538461538  C 20 29.1586538461538  19.8680555555556 29.4290865384615  19.6041666666667 29.6574519230769  C 19.3402777777778 29.8858173076923  19.0277777777778 30  18.6666666666667 30  L 5.33333333333333 30  C 4.97222222222222 30  4.65972222222222 29.8858173076923  4.39583333333333 29.6574519230769  C 4.13194444444444 29.4290865384615  4 29.1586538461538  4 28.8461538461538  C 4 28.5336538461538  4.13194444444444 28.2632211538462  4.39583333333333 28.0348557692308  C 4.65972222222222 27.8064903846154  4.97222222222222 27.6923076923077  5.33333333333333 27.6923076923077  L 10.6666666666667 27.6923076923077  L 10.6666666666667 25.3125  C 7.65277777777778 25.0240384615385  5.12152777777778 23.8972355769231  3.07291666666667 21.9320913461538  C 1.02430555555556 19.9669471153846  0 17.65625  0 15  L 0 12.6923076923077  C 0 12.3798076923077  0.131944444444444 12.109375  0.395833333333333 11.8810096153846  C 0.659722222222222 11.6526442307692  0.972222222222222 11.5384615384615  1.33333333333333 11.5384615384615  C 1.69444444444444 11.5384615384615  2.00694444444444 11.6526442307692  2.27083333333333 11.8810096153846  C 2.53472222222222 12.109375  2.66666666666667 12.3798076923077  2.66666666666667 12.6923076923077  L 2.66666666666667 15  C 2.66666666666667 17.2235576923077  3.57986111111111 19.1256009615385  5.40625 20.7061298076923  C 7.23263888888889 22.2866586538462  9.43055555555556 23.0769230769231  12 23.0769230769231  C 14.5694444444444 23.0769230769231  16.7673611111111 22.2866586538462  18.59375 20.7061298076923  C 20.4201388888889 19.1256009615385  21.3333333333333 17.2235576923077  21.3333333333333 15  L 21.3333333333333 12.6923076923077  C 21.3333333333333 12.3798076923077  21.4652777777778 12.109375  21.7291666666667 11.8810096153846  C 21.9930555555556 11.6526442307692  22.3055555555556 11.5384615384615  22.6666666666667 11.5384615384615  C 23.0277777777778 11.5384615384615  23.3402777777778 11.6526442307692  23.6041666666667 11.8810096153846  Z M 16.7083333333333 1.69471153846154  C 18.0138888888889 2.82451923076923  18.6666666666667 4.18269230769231  18.6666666666667 5.76923076923077  L 18.6666666666667 15  C 18.6666666666667 16.5865384615385  18.0138888888889 17.9447115384615  16.7083333333333 19.0745192307692  C 15.4027777777778 20.2043269230769  13.8333333333333 20.7692307692308  12 20.7692307692308  C 10.1666666666667 20.7692307692308  8.59722222222223 20.2043269230769  7.29166666666667 19.0745192307692  C 5.98611111111111 17.9447115384615  5.33333333333333 16.5865384615385  5.33333333333333 15  L 5.33333333333333 5.76923076923077  C 5.33333333333333 4.18269230769231  5.98611111111111 2.82451923076923  7.29166666666667 1.69471153846154  C 8.59722222222223 0.564903846153849  10.1666666666667 0  12 0  C 13.8333333333333 0  15.4027777777778 0.564903846153849  16.7083333333333 1.69471153846154  Z " fill-rule="nonzero" fill="#000000" stroke="none" transform="matrix(1 0 0 1 317 81 )" />
  </g>
</svg>