<?xml version="1.0" encoding="utf-8"?>
<svg version="1.1" xmlns:xlink="http://www.w3.org/1999/xlink" width="22px" height="18px" xmlns="http://www.w3.org/2000/svg">
  <g transform="matrix(1 0 0 1 -345 -242 )">
    <path d="M 21.6025806451613 2.48484848484849  C 21.8675268817204 2.76767676767677  22 3.11111111111111  22 3.51515151515152  C 22 3.91919191919192  21.8675268817204 4.26262626262626  21.6025806451613 4.54545454545455  L 11.3264516129032 15.5151515151515  L 9.39612903225806 17.5757575757576  C 9.13118279569893 17.8585858585859  8.8094623655914 18  8.43096774193548 18  C 8.05247311827957 18  7.73075268817204 17.8585858585859  7.4658064516129 17.5757575757576  L 5.53548387096774 15.5151515151515  L 0.39741935483871 10.030303030303  C 0.13247311827957 9.74747474747475  0 9.4040404040404  0 9  C 0 8.5959595959596  0.13247311827957 8.25252525252525  0.39741935483871 7.96969696969697  L 2.32774193548387 5.90909090909091  C 2.59268817204301 5.62626262626263  2.91440860215054 5.48484848484848  3.29290322580645 5.48484848484848  C 3.67139784946237 5.48484848484848  3.99311827956989 5.62626262626263  4.25806451612903 5.90909090909091  L 8.43096774193548 10.3787878787879  L 17.741935483871 0.424242424242424  C 18.0068817204301 0.141414141414141  18.3286021505376 0  18.7070967741935 0  C 19.0855913978495 0  19.407311827957 0.141414141414141  19.6722580645161 0.424242424242424  L 21.6025806451613 2.48484848484849  Z " fill-rule="nonzero" fill="#02a7f0" stroke="none" fill-opacity="0.776470588235294" transform="matrix(1 0 0 1 345 242 )" />
  </g>
</svg>