<?xml version="1.0" encoding="utf-8"?>
<svg version="1.1" xmlns:xlink="http://www.w3.org/1999/xlink" width="115px" height="92px" xmlns="http://www.w3.org/2000/svg">
  <g transform="matrix(1 0 0 1 -130 -185 )">
    <path d="M 34.9791666666667 18.6875  C 37.2152777777778 20.9236111111111  38.3333333333333 23.6388888888889  38.3333333333333 26.8333333333333  C 38.3333333333333 30.0277777777778  37.2152777777778 32.7430555555556  34.9791666666667 34.9791666666667  C 32.7430555555556 37.2152777777778  30.0277777777778 38.3333333333333  26.8333333333333 38.3333333333333  C 23.6388888888889 38.3333333333333  20.9236111111111 37.2152777777778  18.6875 34.9791666666667  C 16.4513888888889 32.7430555555556  15.3333333333333 30.0277777777778  15.3333333333333 26.8333333333333  C 15.3333333333333 23.6388888888889  16.4513888888889 20.9236111111111  18.6875 18.6875  C 20.9236111111111 16.4513888888889  23.6388888888889 15.3333333333333  26.8333333333333 15.3333333333333  C 30.0277777777778 15.3333333333333  32.7430555555556 16.4513888888889  34.9791666666667 18.6875  Z M 74.75 24.9166666666667  L 99 49.8333333333333  L 99 76  L 16 76  L 16 65.1666666666667  L 34.5 46  L 44.0833333333333 55.5833333333333  L 74.75 24.9166666666667  Z M 106.764322916667 8.23567708333333  C 106.384982638889 7.85633680555555  105.935763888889 7.66666666666667  105.416666666667 8  L 9.58333333333333 8  C 9.06423611111111 7.66666666666667  8.61501736111111 7.85633680555555  8.23567708333333 8.23567708333333  C 7.85633680555556 8.6150173611111  7.66666666666667 9.0642361111111  8 9.58333333333333  L 8 82.4166666666667  C 7.66666666666667 82.9357638888889  7.85633680555556 83.3849826388889  8.23567708333333 83.7643229166667  C 8.61501736111111 84.1436631944444  9.06423611111111 84.3333333333333  9.58333333333333 84  L 105.416666666667 84  C 105.935763888889 84.3333333333333  106.384982638889 84.1436631944444  106.764322916667 83.7643229166667  C 107.143663194444 83.3849826388889  107.333333333333 82.9357638888889  107 82.4166666666667  L 107 9.58333333333333  C 107.333333333333 9.0642361111111  107.143663194444 8.6150173611111  106.764322916667 8.23567708333333  Z M 112.184895833333 2.81510416666667  C 114.061631944444 4.69184027777777  115 6.94791666666667  115 9.58333333333333  L 115 82.4166666666667  C 115 85.0520833333333  114.061631944444 87.3081597222222  112.184895833333 89.1848958333333  C 110.308159722222 91.0616319444444  108.052083333333 92  105.416666666667 92  L 9.58333333333333 92  C 6.94791666666667 92  4.69184027777778 91.0616319444444  2.81510416666667 89.1848958333333  C 0.938368055555556 87.3081597222222  0 85.0520833333333  0 82.4166666666667  L 0 9.58333333333333  C 0 6.94791666666667  0.938368055555556 4.69184027777777  2.81510416666667 2.81510416666667  C 4.69184027777778 0.938368055555546  6.94791666666667 0  9.58333333333333 0  L 105.416666666667 0  C 108.052083333333 0  110.308159722222 0.938368055555546  112.184895833333 2.81510416666667  Z " fill-rule="nonzero" fill="#000000" stroke="none" transform="matrix(1 0 0 1 130 185 )" />
  </g>
</svg>