<?xml version="1.0" encoding="utf-8"?>
<svg version="1.1" xmlns:xlink="http://www.w3.org/1999/xlink" width="50px" height="14px" xmlns="http://www.w3.org/2000/svg">
  <g transform="matrix(1 0 0 1 -353 -114 )">
    <path d="M 12.6420454545455 1.02083333333333  C 13.3049242424242 1.70138888888888  13.6363636363636 2.52777777777778  13.6363636363636 3.5  L 13.6363636363636 10.5  C 13.6363636363636 11.4722222222222  13.3049242424242 12.2986111111111  12.6420454545455 12.9791666666667  C 11.9791666666667 13.6597222222222  11.1742424242424 14  10.2272727272727 14  L 3.40909090909091 14  C 2.46212121212121 14  1.65719696969697 13.6597222222222  0.994318181818182 12.9791666666667  C 0.331439393939394 12.2986111111111  0 11.4722222222222  0 10.5  L 0 3.5  C 0 2.52777777777778  0.331439393939394 1.70138888888888  0.994318181818182 1.02083333333333  C 1.65719696969697 0.340277777777775  2.46212121212121 0  3.40909090909091 0  L 10.2272727272727 0  C 11.1742424242424 0  11.9791666666667 0.340277777777775  12.6420454545455 1.02083333333333  Z M 30.8238636363636 1.02083333333333  C 31.4867424242424 1.70138888888888  31.8181818181818 2.52777777777778  31.8181818181818 3.5  L 31.8181818181818 10.5  C 31.8181818181818 11.4722222222222  31.4867424242424 12.2986111111111  30.8238636363636 12.9791666666667  C 30.1609848484849 13.6597222222222  29.3560606060606 14  28.4090909090909 14  L 21.5909090909091 14  C 20.6439393939394 14  19.8390151515152 13.6597222222222  19.1761363636364 12.9791666666667  C 18.5132575757576 12.2986111111111  18.1818181818182 11.4722222222222  18.1818181818182 10.5  L 18.1818181818182 3.5  C 18.1818181818182 2.52777777777778  18.5132575757576 1.70138888888888  19.1761363636364 1.02083333333333  C 19.8390151515152 0.340277777777775  20.6439393939394 0  21.5909090909091 0  L 28.4090909090909 0  C 29.3560606060606 0  30.1609848484849 0.340277777777775  30.8238636363636 1.02083333333333  Z M 49.0056818181818 1.02083333333333  C 49.6685606060606 1.70138888888888  50 2.52777777777778  50 3.5  L 50 10.5  C 50 11.4722222222222  49.6685606060606 12.2986111111111  49.0056818181818 12.9791666666667  C 48.342803030303 13.6597222222222  47.5378787878788 14  46.5909090909091 14  L 39.7727272727273 14  C 38.8257575757576 14  38.0208333333333 13.6597222222222  37.3579545454545 12.9791666666667  C 36.6950757575758 12.2986111111111  36.3636363636364 11.4722222222222  36.3636363636364 10.5  L 36.3636363636364 3.5  C 36.3636363636364 2.52777777777778  36.6950757575758 1.70138888888888  37.3579545454545 1.02083333333333  C 38.0208333333333 0.340277777777775  38.8257575757576 0  39.7727272727273 0  L 46.5909090909091 0  C 47.5378787878788 0  48.342803030303 0.340277777777775  49.0056818181818 1.02083333333333  Z " fill-rule="nonzero" fill="#000000" stroke="none" transform="matrix(1 0 0 1 353 114 )" />
  </g>
</svg>