<?xml version="1.0" encoding="utf-8"?>
<svg version="1.1" xmlns:xlink="http://www.w3.org/1999/xlink" width="105px" height="27px" xmlns="http://www.w3.org/2000/svg">
  <defs>
    <mask fill="white" id="clip169">
      <path d="M 13.5 27  C 5.94 27  0 21.0599999999999  0 13.5  C 0 5.94000000000005  5.94 0  13.5 0  L 63.9180327868847 0  L 91.5 0  C 99.06 0  105 5.94000000000005  105 13.5  C 105 21.0599999999999  99.06 27  91.5 27  L 13.5 27  Z " fill-rule="evenodd" />
    </mask>
  </defs>
  <g transform="matrix(1 0 0 1 -274 -791 )">
    <path d="M 13.5 27  C 5.94 27  0 21.0599999999999  0 13.5  C 0 5.94000000000005  5.94 0  13.5 0  L 63.9180327868847 0  L 91.5 0  C 99.06 0  105 5.94000000000005  105 13.5  C 105 21.0599999999999  99.06 27  91.5 27  L 13.5 27  Z " fill-rule="nonzero" fill="#0400cc" stroke="none" fill-opacity="0.607843137254902" transform="matrix(1 0 0 1 274 791 )" />
    <path d="M 13.5 27  C 5.94 27  0 21.0599999999999  0 13.5  C 0 5.94000000000005  5.94 0  13.5 0  L 63.9180327868847 0  L 91.5 0  C 99.06 0  105 5.94000000000005  105 13.5  C 105 21.0599999999999  99.06 27  91.5 27  L 13.5 27  Z " stroke-width="2" stroke="#797979" fill="none" transform="matrix(1 0 0 1 274 791 )" mask="url(#clip169)" />
  </g>
</svg>