<?xml version="1.0" encoding="utf-8"?>
<svg version="1.1" xmlns:xlink="http://www.w3.org/1999/xlink" width="21px" height="20px" xmlns="http://www.w3.org/2000/svg">
  <g transform="matrix(1 0 0 1 -384 -171 )">
    <path d="M 20.5823863636364 7.67045454545455  C 20.8607954545455 7.93560606060606  21 8.25757575757576  21 8.63636363636363  L 21 11.3636363636364  C 21 11.7424242424242  20.8607954545455 12.0643939393939  20.5823863636364 12.3295454545455  C 20.3039772727273 12.594696969697  19.9659090909091 12.7272727272727  19.5681818181818 12.7272727272727  L 13.3636363636364 12.7272727272727  L 13.3636363636364 18.6363636363636  C 13.3636363636364 19.0151515151515  13.2244318181818 19.3371212121212  12.9460227272727 19.6022727272727  C 12.6676136363636 19.8674242424242  12.3295454545455 20  11.9318181818182 20  L 9.06818181818182 20  C 8.67045454545455 20  8.33238636363637 19.8674242424242  8.05397727272727 19.6022727272727  C 7.77556818181818 19.3371212121212  7.63636363636364 19.0151515151515  7.63636363636364 18.6363636363636  L 7.63636363636364 12.7272727272727  L 1.43181818181818 12.7272727272727  C 1.03409090909091 12.7272727272727  0.696022727272727 12.594696969697  0.417613636363636 12.3295454545455  C 0.139204545454545 12.0643939393939  0 11.7424242424242  0 11.3636363636364  L 0 8.63636363636363  C 0 8.25757575757576  0.139204545454545 7.93560606060606  0.417613636363636 7.67045454545455  C 0.696022727272727 7.40530303030303  1.03409090909091 7.27272727272727  1.43181818181818 7.27272727272727  L 7.63636363636364 7.27272727272727  L 7.63636363636364 1.36363636363636  C 7.63636363636364 0.984848484848484  7.77556818181818 0.662878787878787  8.05397727272727 0.397727272727273  C 8.33238636363637 0.132575757575757  8.67045454545455 0  9.06818181818182 0  L 11.9318181818182 0  C 12.3295454545455 0  12.6676136363636 0.132575757575757  12.9460227272727 0.397727272727273  C 13.2244318181818 0.662878787878787  13.3636363636364 0.984848484848484  13.3636363636364 1.36363636363636  L 13.3636363636364 7.27272727272727  L 19.5681818181818 7.27272727272727  C 19.9659090909091 7.27272727272727  20.3039772727273 7.40530303030303  20.5823863636364 7.67045454545455  Z " fill-rule="nonzero" fill="#000000" stroke="none" transform="matrix(1 0 0 1 384 171 )" />
  </g>
</svg>