<?xml version="1.0" encoding="utf-8"?>
<svg version="1.1" xmlns:xlink="http://www.w3.org/1999/xlink" width="300px" height="170px" xmlns="http://www.w3.org/2000/svg">
  <g transform="matrix(1 0 0 1 -67 -326 )">
    <path d="M 67 326  L 367 326  L 367 496  L 67 496  L 67 326  " fill-rule="nonzero" fill="#cccccc" stroke="none" />
    <path d="M 79 338  L 355 338  L 355 484  L 79 484  L 79 338  " fill-rule="nonzero" fill="#ffffff" stroke="none" />
    <path d="M 235.75 377  C 228.61 377  223 371.39  223 364.25  C 223 357.11  228.61 351.5  235.75 351.5  C 242.89 351.5  248.5 357.11  248.5 364.25  C 248.5 371.39  242.89 377  235.75 377  " fill-rule="nonzero" fill="#cccccc" stroke="none" />
    <path d="M 84 480  L 84 404.65  L 150.75 370.4  L 244.2 433.42  L 297.6 390.95  L 351 433.42  L 351 480  L 84 480  " fill-rule="nonzero" fill="#169bd5" stroke="none" />
  </g>
</svg>