<?xml version="1.0" encoding="utf-8"?>
<svg version="1.1" xmlns:xlink="http://www.w3.org/1999/xlink" width="34px" height="37px" xmlns="http://www.w3.org/2000/svg">
  <g transform="matrix(1 0 0 1 -355 -93 )">
    <path d="M 28.0234375 15.681640625  C 28.2890625 15.392578125  28.421875 15.03125  28.421875 14.59765625  C 28.421875 14.1480034722222  28.2890625 13.7786458333333  28.0234375 13.4895833333333  L 26.0091145833333 11.3216145833333  C 25.7287326388889 11.0164930555556  25.3967013888889 10.8639322916667  25.0130208333333 10.8639322916667  C 24.6293402777778 10.8639322916667  24.2973090277778 11.0164930555556  24.0169270833333 11.3216145833333  L 14.9856770833333 21.1256510416667  L 9.98307291666667 15.681640625  C 9.70269097222222 15.3765190972222  9.37065972222222 15.2239583333333  8.98697916666667 15.2239583333333  C 8.60329861111111 15.2239583333333  8.27126736111111 15.3765190972222  7.99088541666667 15.681640625  L 5.9765625 17.849609375  C 5.7109375 18.138671875  5.578125 18.5080295138889  5.578125 18.9576822916667  C 5.578125 19.3912760416667  5.7109375 19.7526041666667  5.9765625 20.0416666666667  L 13.9895833333333 28.76171875  C 14.2699652777778 29.0668402777778  14.6019965277778 29.2194010416667  14.9856770833333 29.2194010416667  C 15.3841145833333 29.2194010416667  15.7235243055556 29.0668402777778  16.00390625 28.76171875  L 28.0234375 15.681640625  Z M 31.7200520833333 9.2138671875  C 33.2400173611111 12.0482855902778  34 15.1436631944444  34 18.5  C 34 21.8563368055556  33.2400173611111 24.9517144097222  31.7200520833333 27.7861328125  C 30.2000868055556 30.6205512152778  28.1378038194444 32.8648003472222  25.533203125 34.5188802083333  C 22.9286024305556 36.1729600694445  20.0842013888889 37  17 37  C 13.9157986111111 37  11.0713975694444 36.1729600694445  8.466796875 34.5188802083333  C 5.86219618055556 32.8648003472222  3.79991319444444 30.6205512152778  2.27994791666667 27.7861328125  C 0.759982638888889 24.9517144097222  0 21.8563368055556  0 18.5  C 0 15.1436631944444  0.759982638888889 12.0482855902778  2.27994791666667 9.2138671875  C 3.79991319444444 6.37944878472222  5.86219618055556 4.13519965277777  8.466796875 2.48111979166667  C 11.0713975694444 0.827039930555552  13.9157986111111 0  17 0  C 20.0842013888889 0  22.9286024305556 0.827039930555552  25.533203125 2.48111979166667  C 28.1378038194444 4.13519965277777  30.2000868055556 6.37944878472222  31.7200520833333 9.2138671875  Z " fill-rule="nonzero" fill="#000000" stroke="none" transform="matrix(1 0 0 1 355 93 )" />
  </g>
</svg>