<?xml version="1.0" encoding="utf-8"?>
<svg version="1.1" xmlns:xlink="http://www.w3.org/1999/xlink" width="38px" height="43px" xmlns="http://www.w3.org/2000/svg">
  <g transform="matrix(1 0 0 1 -67 -87 )">
    <path d="M 27.9557291666667 29.1145833333333  C 28.2690972222222 28.7599826388889  28.42578125 28.3307291666667  28.42578125 27.8268229166667  C 28.42578125 27.3415798611111  28.2690972222222 26.9216579861111  27.9557291666667 26.5670572916667  L 23.4778645833333 21.5  L 27.9557291666667 16.4329427083333  C 28.2690972222222 16.0783420138889  28.42578125 15.6584201388889  28.42578125 15.1731770833333  C 28.42578125 14.6692708333333  28.2690972222222 14.2400173611111  27.9557291666667 13.8854166666667  L 25.7291666666667 11.3658854166667  C 25.4157986111111 11.0112847222222  25.0364583333333 10.833984375  24.5911458333333 10.833984375  C 24.1623263888889 10.833984375  23.7912326388889 11.0112847222222  23.4778645833333 11.3658854166667  L 19 16.4329427083333  L 14.5221354166667 11.3658854166667  C 14.2087673611111 11.0112847222222  13.8376736111111 10.833984375  13.4088541666667 10.833984375  C 12.9635416666667 10.833984375  12.5842013888889 11.0112847222222  12.2708333333333 11.3658854166667  L 10.0442708333333 13.8854166666667  C 9.73090277777778 14.2400173611111  9.57421875 14.6692708333333  9.57421875 15.1731770833333  C 9.57421875 15.6584201388889  9.73090277777778 16.0783420138889  10.0442708333333 16.4329427083333  L 14.5221354166667 21.5  L 10.0442708333333 26.5670572916667  C 9.73090277777778 26.9216579861111  9.57421875 27.3415798611111  9.57421875 27.8268229166667  C 9.57421875 28.3307291666667  9.73090277777778 28.7599826388889  10.0442708333333 29.1145833333333  L 12.2708333333333 31.6341145833333  C 12.5842013888889 31.9887152777778  12.9635416666667 32.166015625  13.4088541666667 32.166015625  C 13.8376736111111 32.166015625  14.2087673611111 31.9887152777778  14.5221354166667 31.6341145833333  L 19 26.5670572916667  L 23.4778645833333 31.6341145833333  C 23.7912326388889 31.9887152777778  24.1623263888889 32.166015625  24.5911458333333 32.166015625  C 25.0364583333333 32.166015625  25.4157986111111 31.9887152777778  25.7291666666667 31.6341145833333  L 27.9557291666667 29.1145833333333  Z M 35.4518229166667 10.7080078125  C 37.1506076388889 14.0020616319444  38 17.5993923611111  38 21.5  C 38 25.4006076388889  37.1506076388889 28.9979383680556  35.4518229166667 32.2919921875  C 33.7530381944445 35.5860460069444  31.4481336805556 38.1942274305556  28.537109375 40.1165364583333  C 25.6260850694445 42.0388454861111  22.4470486111111 43  19 43  C 15.5529513888889 43  12.3739149305556 42.0388454861111  9.462890625 40.1165364583333  C 6.55186631944444 38.1942274305556  4.24696180555556 35.5860460069444  2.54817708333333 32.2919921875  C 0.849392361111111 28.9979383680556  0 25.4006076388889  0 21.5  C 0 17.5993923611111  0.849392361111111 14.0020616319444  2.54817708333333 10.7080078125  C 4.24696180555556 7.41395399305556  6.55186631944444 4.80577256944444  9.462890625 2.88346354166667  C 12.3739149305556 0.961154513888885  15.5529513888889 0  19 0  C 22.4470486111111 0  25.6260850694445 0.961154513888885  28.537109375 2.88346354166667  C 31.4481336805556 4.80577256944444  33.7530381944445 7.41395399305556  35.4518229166667 10.7080078125  Z " fill-rule="nonzero" fill="#000000" stroke="none" transform="matrix(1 0 0 1 67 87 )" />
  </g>
</svg>