<?xml version="1.0" encoding="utf-8"?>
<svg version="1.1" xmlns:xlink="http://www.w3.org/1999/xlink" width="26px" height="26px" xmlns="http://www.w3.org/2000/svg">
  <g transform="matrix(1 0 0 1 -62 -789 )">
    <path d="M 25.3872053872054 19.4343434343434  C 25.7957351290685 19.8428731762065  26 20.3389450056117  26 20.9225589225589  C 26 21.5061728395062  25.7957351290685 22.0022446689113  25.3872053872054 22.4107744107744  L 22.4107744107744 25.3872053872054  C 22.0022446689113 25.7957351290685  21.5061728395062 26  20.9225589225589 26  C 20.3389450056117 26  19.8428731762065 25.7957351290685  19.4343434343434 25.3872053872054  L 13 18.952861952862  L 6.56565656565657 25.3872053872054  C 6.15712682379349 25.7957351290685  5.66105499438833 26  5.07744107744108 26  C 4.49382716049383 26  3.99775533108867 25.7957351290685  3.58922558922559 25.3872053872054  L 0.612794612794613 22.4107744107744  C 0.204264870931538 22.0022446689113  0 21.5061728395062  0 20.9225589225589  C 0 20.3389450056117  0.204264870931538 19.8428731762065  0.612794612794613 19.4343434343434  L 7.04713804713805 13  L 0.612794612794613 6.56565656565656  C 0.204264870931538 6.15712682379349  0 5.66105499438833  0 5.07744107744108  C 0 4.49382716049383  0.204264870931538 3.99775533108866  0.612794612794613 3.58922558922559  L 3.58922558922559 0.612794612794613  C 3.99775533108867 0.204264870931537  4.49382716049383 0  5.07744107744108 0  C 5.66105499438833 0  6.15712682379349 0.204264870931537  6.56565656565657 0.612794612794613  L 13 7.04713804713805  L 19.4343434343434 0.612794612794613  C 19.8428731762065 0.204264870931537  20.3389450056117 0  20.9225589225589 0  C 21.5061728395062 0  22.0022446689113 0.204264870931537  22.4107744107744 0.612794612794613  L 25.3872053872054 3.58922558922559  C 25.7957351290685 3.99775533108866  26 4.49382716049383  26 5.07744107744108  C 26 5.66105499438833  25.7957351290685 6.15712682379349  25.3872053872054 6.56565656565656  L 18.952861952862 13  L 25.3872053872054 19.4343434343434  Z " fill-rule="nonzero" fill="#f2f2f2" stroke="none" transform="matrix(1 0 0 1 62 789 )" />
  </g>
</svg>