<?xml version="1.0" encoding="utf-8"?>
<svg version="1.1" xmlns:xlink="http://www.w3.org/1999/xlink" width="26px" height="20px" xmlns="http://www.w3.org/2000/svg">
  <g transform="matrix(1 0 0 1 -365 -793 )">
    <path d="M 17.2385416666667 19.0798611111111  C 17.3017361111111 19.1956018518519  17.3333333333333 19.3171296296296  17.3333333333333 19.4444444444444  C 17.3333333333333 19.5949074074074  17.2904513888889 19.7251157407407  17.2046875 19.8350694444444  C 17.1189236111111 19.9450231481481  17.0173611111111 20  16.9 20  L 3.9 20  C 3.82777777777778 20  3.76684027777778 19.9884259259259  3.7171875 19.9652777777778  C 3.66753472222222 19.9421296296296  3.62690972222222 19.9016203703704  3.5953125 19.84375  C 3.56371527777778 19.7858796296296  3.53888888888889 19.7395833333333  3.52083333333333 19.7048611111111  C 3.50277777777778 19.6701388888889  3.48923611111111 19.603587962963  3.48020833333333 19.5052083333333  C 3.47118055555556 19.4068287037037  3.46666666666667 19.3402777777778  3.46666666666667 19.3055555555556  L 3.46666666666667 19.0798611111111  L 3.46666666666667 18.8888888888889  L 3.46666666666667 16.1111111111111  L 3.46666666666667 8.88888888888889  L 0.866666666666667 8.88888888888889  C 0.631944444444445 8.88888888888889  0.428819444444444 8.77893518518518  0.257291666666667 8.55902777777778  C 0.0857638888888889 8.33912037037037  0 8.0787037037037  0 7.77777777777778  C 0 7.5  0.0677083333333333 7.26273148148148  0.203125 7.06597222222222  L 4.53645833333333 0.399305555555556  C 4.70798611111111 0.144675925925926  4.92916666666667 0.0173611111111116  5.2 0.0173611111111116  C 5.47083333333333 0.0173611111111116  5.69201388888889 0.144675925925926  5.86354166666667 0.399305555555556  L 10.196875 7.06597222222222  C 10.3322916666667 7.26273148148148  10.4 7.5  10.4 7.77777777777778  C 10.4 8.0787037037037  10.3142361111111 8.33912037037037  10.1427083333333 8.55902777777778  C 9.97118055555556 8.77893518518518  9.76805555555556 8.88888888888889  9.53333333333333 8.88888888888889  L 6.93333333333333 8.88888888888889  L 6.93333333333333 15.5555555555556  L 14.7333333333333 15.5555555555556  C 14.8777777777778 15.5555555555556  14.990625 15.619212962963  15.071875 15.7465277777778  L 17.2385416666667 19.0798611111111  Z M 25.7427083333333 11.4409722222222  C 25.9142361111111 11.6608796296296  26 11.9212962962963  26 12.2222222222222  C 26 12.5  25.9322916666667 12.7372685185185  25.796875 12.9340277777778  L 21.4635416666667 19.6006944444444  C 21.2829861111111 19.8668981481481  21.0618055555556 20  20.8 20  C 20.5381944444444 20  20.3170138888889 19.8668981481481  20.1364583333333 19.6006944444444  L 15.803125 12.9340277777778  C 15.6677083333333 12.7372685185185  15.6 12.5  15.6 12.2222222222222  C 15.6 11.9212962962963  15.6857638888889 11.6608796296296  15.8572916666667 11.4409722222222  C 16.0288194444444 11.2210648148148  16.2319444444444 11.1111111111111  16.4666666666667 11.1111111111111  L 19.0666666666667 11.1111111111111  L 19.0666666666667 4.44444444444444  L 11.2666666666667 4.44444444444444  C 11.1222222222222 4.44444444444444  11.009375 4.375  10.928125 4.23611111111111  L 8.76145833333333 0.902777777777777  C 8.69826388888889 0.798611111111112  8.66666666666667 0.68287037037037  8.66666666666667 0.555555555555556  C 8.66666666666667 0.405092592592591  8.70954861111111 0.274884259259258  8.7953125 0.164930555555556  C 8.88107638888889 0.054976851851849  8.98263888888889 0  9.1 0  L 22.1 0  C 22.1722222222222 0  22.2331597222222 0.0115740740740722  22.2828125 0.0347222222222232  C 22.3324652777778 0.0578703703703698  22.3730902777778 0.098379629629628  22.4046875 0.15625  C 22.4362847222222 0.21412037037037  22.4611111111111 0.260416666666667  22.4791666666667 0.295138888888888  C 22.4972222222222 0.329861111111112  22.5107638888889 0.396412037037035  22.5197916666667 0.494791666666667  C 22.5288194444444 0.593171296296293  22.5333333333333 0.659722222222223  22.5333333333333 0.694444444444444  L 22.5333333333333 0.920138888888888  L 22.5333333333333 1.11111111111111  L 22.5333333333333 3.88888888888889  L 22.5333333333333 11.1111111111111  L 25.1333333333333 11.1111111111111  C 25.3680555555556 11.1111111111111  25.5711805555556 11.2210648148148  25.7427083333333 11.4409722222222  Z " fill-rule="nonzero" fill="#d7d7d7" stroke="none" transform="matrix(1 0 0 1 365 793 )" />
  </g>
</svg>