<?xml version="1.0" encoding="utf-8"?>
<svg version="1.1" xmlns:xlink="http://www.w3.org/1999/xlink" width="13px" height="21px" xmlns="http://www.w3.org/2000/svg">
  <g transform="matrix(1 0 0 1 -371 -113 )">
    <path d="M 12.3340757238307 5.33834134615384  C 12.5174461766889 5.33834134615384  12.6815144766147 5.40144230769231  12.826280623608 5.52764423076923  C 13 5.69591346153846  13.0337787676318 5.88100961538461  12.9276169265033 6.08293269230769  L 5.11024498886414 20.6844951923077  C 4.98478099480327 20.8948317307692  4.78210838901262 21  4.5022271714922 21  C 4.46362286562732 21  4.39606533036377 20.9915865384615  4.29955456570156 20.9747596153846  C 4.1354862657758 20.9326923076923  4.01243504083148 20.8527644230769  3.9304008908686 20.7349759615385  C 3.84836674090572 20.6171875  3.82665181885672 20.4909855769231  3.8652561247216 20.3563701923077  L 6.71714922048998 10.1592548076923  L 0.839643652561247 11.4338942307692  C 0.801039346696362 11.4423076923077  0.743132887899035 11.4465144230769  0.665924276169265 11.4465144230769  C 0.492204899777283 11.4465144230769  0.342613214550854 11.4002403846154  0.217149220489978 11.3076923076923  C 0.0434298440979955 11.1814903846154  -0.0193021529324425 11.0174278846154  0.0289532293986637 10.8155048076923  L 2.93875278396437 0.403846153846155  C 2.97735708982925 0.286057692307691  3.05456570155902 0.189302884615386  3.17037861915367 0.113581730769231  C 3.28619153674833 0.0378605769230762  3.42130660727543 0  3.57572383073497 0  L 8.32405345211581 0  C 8.50742390497402 0  8.66184112843356 0.0525841346153818  8.78730512249443 0.157752403846155  C 8.91276911655531 0.262920673076923  8.97550111358574 0.387019230769229  8.97550111358574 0.530048076923076  C 8.97550111358574 0.597355769230768  8.95137342242019 0.673076923076923  8.90311804008909 0.757211538461538  L 6.42761692650334 6.60036057692308  L 12.1603563474388 5.36358173076923  C 12.2375649591685 5.34675480769231  12.2954714179659 5.33834134615384  12.3340757238307 5.33834134615384  Z " fill-rule="nonzero" fill="#000000" stroke="none" transform="matrix(1 0 0 1 371 113 )" />
  </g>
</svg>