<?xml version="1.0" encoding="utf-8"?>
<svg version="1.1" xmlns:xlink="http://www.w3.org/1999/xlink" width="26px" height="23px" xmlns="http://www.w3.org/2000/svg">
  <g transform="matrix(1 0 0 1 -50 -142 )">
    <path d="M 25.3872053872054 17.1919191919192  C 25.7957351290685 17.5533108866442  26 17.9921436588103  26 18.5084175084175  C 26 19.0246913580247  25.7957351290685 19.4635241301908  25.3872053872054 19.8249158249158  L 22.4107744107744 22.4579124579125  C 22.0022446689113 22.8193041526375  21.5061728395062 23  20.9225589225589 23  C 20.3389450056117 23  19.8428731762065 22.8193041526375  19.4343434343434 22.4579124579125  L 13 16.7659932659933  L 6.56565656565657 22.4579124579125  C 6.15712682379349 22.8193041526375  5.66105499438833 23  5.07744107744108 23  C 4.49382716049383 23  3.99775533108866 22.8193041526375  3.58922558922559 22.4579124579125  L 0.612794612794616 19.8249158249158  C 0.204264870931539 19.4635241301908  0 19.0246913580247  0 18.5084175084175  C 0 17.9921436588103  0.204264870931539 17.5533108866442  0.612794612794616 17.1919191919192  L 7.04713804713805 11.5  L 0.612794612794616 5.8080808080808  C 0.204264870931539 5.44668911335577  0 5.00785634118967  0 4.49158249158251  C 0 3.97530864197532  0.204264870931539 3.53647586980921  0.612794612794616 3.17508417508418  L 3.58922558922559 0.542087542087529  C 3.99775533108866 0.1806958473625  4.49382716049383 0  5.07744107744108 0  C 5.66105499438833 0  6.15712682379349 0.1806958473625  6.56565656565657 0.542087542087529  L 10.3115450615351 3.85575813459548  L 13 6.23400673400673  L 19.4343434343434 0.542087542087529  C 19.8428731762065 0.1806958473625  20.3389450056117 0  20.9225589225589 0  C 21.5061728395062 0  22.0022446689113 0.1806958473625  22.4107744107744 0.542087542087529  L 25.3872053872054 3.17508417508418  C 25.7957351290685 3.53647586980921  26 3.97530864197532  26 4.49158249158251  C 26 5.00785634118967  25.7957351290685 5.44668911335577  25.3872053872054 5.8080808080808  L 18.952861952862 11.5  L 25.3872053872054 17.1919191919192  Z " fill-rule="nonzero" fill="#000000" stroke="none" transform="matrix(1 0 0 1 50 142 )" />
  </g>
</svg>