<?xml version="1.0" encoding="utf-8"?>
<svg version="1.1" xmlns:xlink="http://www.w3.org/1999/xlink" width="37px" height="10px" xmlns="http://www.w3.org/2000/svg">
  <g transform="matrix(1 0 0 1 -355 -148 )">
    <path d="M 9.35511363636364 0.729166666666666  C 9.84564393939394 1.21527777777777  10.0909090909091 1.80555555555555  10.0909090909091 2.5  L 10.0909090909091 7.5  C 10.0909090909091 8.19444444444444  9.84564393939394 8.78472222222222  9.35511363636364 9.27083333333333  C 8.86458333333333 9.75694444444444  8.26893939393939 10  7.56818181818182 10  L 2.52272727272727 10  C 1.8219696969697 10  1.22632575757576 9.75694444444444  0.735795454545455 9.27083333333333  C 0.245265151515151 8.78472222222222  0 8.19444444444444  0 7.5  L 0 2.5  C 0 1.80555555555555  0.245265151515151 1.21527777777777  0.735795454545455 0.729166666666666  C 1.22632575757576 0.243055555555554  1.8219696969697 0  2.52272727272727 0  L 7.56818181818182 0  C 8.26893939393939 0  8.86458333333333 0.243055555555554  9.35511363636364 0.729166666666666  Z M 22.8096590909091 0.729166666666666  C 23.3001893939394 1.21527777777777  23.5454545454545 1.80555555555555  23.5454545454545 2.5  L 23.5454545454545 7.5  C 23.5454545454545 8.19444444444444  23.3001893939394 8.78472222222222  22.8096590909091 9.27083333333333  C 22.3191287878788 9.75694444444444  21.7234848484849 10  21.0227272727273 10  L 15.9772727272727 10  C 15.2765151515152 10  14.6808712121212 9.75694444444444  14.1903409090909 9.27083333333333  C 13.6998106060606 8.78472222222222  13.4545454545455 8.19444444444444  13.4545454545455 7.5  L 13.4545454545455 2.5  C 13.4545454545455 1.80555555555555  13.6998106060606 1.21527777777777  14.1903409090909 0.729166666666666  C 14.6808712121212 0.243055555555554  15.2765151515152 0  15.9772727272727 0  L 21.0227272727273 0  C 21.7234848484849 0  22.3191287878788 0.243055555555554  22.8096590909091 0.729166666666666  Z M 36.2642045454545 0.729166666666666  C 36.7547348484849 1.21527777777777  37 1.80555555555555  37 2.5  L 37 7.5  C 37 8.19444444444444  36.7547348484849 8.78472222222222  36.2642045454545 9.27083333333333  C 35.7736742424242 9.75694444444444  35.1780303030303 10  34.4772727272727 10  L 29.4318181818182 10  C 28.7310606060606 10  28.1354166666667 9.75694444444444  27.6448863636364 9.27083333333333  C 27.1543560606061 8.78472222222222  26.9090909090909 8.19444444444444  26.9090909090909 7.5  L 26.9090909090909 2.5  C 26.9090909090909 1.80555555555555  27.1543560606061 1.21527777777777  27.6448863636364 0.729166666666666  C 28.1354166666667 0.243055555555554  28.7310606060606 0  29.4318181818182 0  L 34.4772727272727 0  C 35.1780303030303 0  35.7736742424242 0.243055555555554  36.2642045454545 0.729166666666666  Z " fill-rule="nonzero" fill="#000000" stroke="none" transform="matrix(1 0 0 1 355 148 )" />
  </g>
</svg>