<?xml version="1.0" encoding="utf-8"?>
<svg version="1.1" xmlns:xlink="http://www.w3.org/1999/xlink" width="17px" height="22px" xmlns="http://www.w3.org/2000/svg">
  <g transform="matrix(1 0 0 1 -156 -863 )">
    <path d="M 16.7079037800687 1.32264529058116  C 16.9026345933562 1.46960587842351  17 1.63861055444221  17 1.82965931863728  C 17 2.02070808283233  16.9026345933562 2.18971275885103  16.7079037800687 2.33667334669339  L 5.22852233676976 11  L 16.7079037800687 19.6633266533066  C 16.9026345933562 19.810287241149  17 19.9792919171677  17 20.1703406813627  C 17 20.3613894455578  16.9026345933562 20.5303941215765  16.7079037800687 20.6773547094188  L 15.2474226804124 21.7795591182365  C 15.0526918671249 21.9265197060788  14.8287514318442 22  14.5756013745704 22  C 14.3224513172967 22  14.098510882016 21.9265197060788  13.9037800687285 21.7795591182365  L 0.292096219931271 11.5070140280561  C 0.0973654066437572 11.3600534402138  0 11.1910487641951  0 11  C 0 10.8089512358049  0.0973654066437572 10.6399465597862  0.292096219931271 10.4929859719439  L 13.9037800687285 0.220440881763527  C 14.098510882016 0.0734802939211749  14.3224513172967 0  14.5756013745704 0  C 14.8287514318442 0  15.0526918671249 0.0734802939211749  15.2474226804124 0.220440881763527  L 16.7079037800687 1.32264529058116  Z " fill-rule="nonzero" fill="#000000" stroke="none" transform="matrix(1 0 0 1 156 863 )" />
  </g>
</svg>