<?xml version="1.0" encoding="utf-8"?>
<svg version="1.1" xmlns:xlink="http://www.w3.org/1999/xlink" width="17px" height="22px" xmlns="http://www.w3.org/2000/svg">
  <g transform="matrix(1 0 0 1 -269 -863 )">
    <path d="M 16.7079037800687 10.4929859719439  C 16.9026345933562 10.6399465597862  17 10.8089512358049  17 11  C 17 11.1910487641951  16.9026345933562 11.3600534402138  16.7079037800687 11.5070140280561  L 3.09621993127148 21.7795591182365  C 2.90148911798396 21.9265197060788  2.67754868270332 22  2.42439862542955 22  C 2.17124856815578 22  1.94730813287514 21.9265197060788  1.75257731958763 21.7795591182365  L 0.292096219931271 20.6773547094188  C 0.0973654066437572 20.5303941215765  0 20.3613894455578  0 20.1703406813627  C 0 19.9792919171677  0.0973654066437572 19.810287241149  0.292096219931271 19.6633266533066  L 11.7714776632302 11  L 0.292096219931271 2.33667334669339  C 0.0973654066437572 2.18971275885103  0 2.02070808283233  0 1.82965931863728  C 0 1.63861055444221  0.0973654066437572 1.46960587842351  0.292096219931271 1.32264529058116  L 1.75257731958763 0.220440881763527  C 1.94730813287514 0.0734802939211749  2.17124856815578 0  2.42439862542955 0  C 2.67754868270332 0  2.90148911798396 0.0734802939211749  3.09621993127148 0.220440881763527  L 16.7079037800687 10.4929859719439  Z " fill-rule="nonzero" fill="#000000" stroke="none" transform="matrix(1 0 0 1 269 863 )" />
  </g>
</svg>