<?xml version="1.0" encoding="utf-8"?>
<svg version="1.1" xmlns:xlink="http://www.w3.org/1999/xlink" width="50px" height="50px" xmlns="http://www.w3.org/2000/svg">
  <g transform="matrix(1 0 0 1 -49 -393 )">
    <path d="M 40.5894886363636 23.046875  C 40.8025568181818 23.2599431818182  40.9090909090909 23.532196969697  40.9090909090909 23.8636363636364  L 40.9090909090909 26.1363636363636  C 40.9090909090909 26.467803030303  40.8025568181818 26.7400568181818  40.5894886363636 26.953125  C 40.3764204545455 27.1661931818182  40.1041666666667 27.2727272727273  39.7727272727273 27  L 27 27  L 27 39.7727272727273  C 27.2727272727273 40.1041666666667  27.1661931818182 40.3764204545455  26.953125 40.5894886363636  C 26.7400568181818 40.8025568181818  26.467803030303 40.9090909090909  26.1363636363636 40.9090909090909  L 23.8636363636364 40.9090909090909  C 23.532196969697 40.9090909090909  23.2599431818182 40.8025568181818  23.046875 40.5894886363636  C 22.8338068181818 40.3764204545455  22.7272727272727 40.1041666666667  23 39.7727272727273  L 23 27  L 10.2272727272727 27  C 9.89583333333333 27.2727272727273  9.62357954545455 27.1661931818182  9.41051136363636 26.953125  C 9.19744318181818 26.7400568181818  9.09090909090909 26.467803030303  9.09090909090909 26.1363636363636  L 9.09090909090909 23.8636363636364  C 9.09090909090909 23.532196969697  9.19744318181818 23.2599431818182  9.41051136363636 23.046875  C 9.62357954545455 22.8338068181818  9.89583333333333 22.7272727272727  10.2272727272727 23  L 23 23  L 23 10.2272727272727  C 22.7272727272727 9.89583333333333  22.8338068181818 9.62357954545455  23.046875 9.41051136363637  C 23.2599431818182 9.19744318181818  23.532196969697 9.09090909090909  23.8636363636364 9.09090909090909  L 26.1363636363636 9.09090909090909  C 26.467803030303 9.09090909090909  26.7400568181818 9.19744318181818  26.953125 9.41051136363637  C 27.1661931818182 9.62357954545455  27.2727272727273 9.89583333333333  27 10.2272727272727  L 27 23  L 39.7727272727273 23  C 40.1041666666667 22.7272727272727  40.3764204545455 22.8338068181818  40.5894886363636 23.046875  Z M 43.7855113636364 43.7855113636364  C 44.8982007575758 42.672821969697  45.4545454545455 41.3352272727273  45.4545454545455 39.7727272727273  L 45.4545454545455 10.2272727272727  C 45.4545454545455 8.66477272727273  44.8982007575758 7.32717803030303  43.7855113636364 6.21448863636363  C 42.672821969697 5.10179924242424  41.3352272727273 4.54545454545455  39.7727272727273 4.54545454545455  L 10.2272727272727 4.54545454545455  C 8.66477272727273 4.54545454545455  7.32717803030303 5.10179924242424  6.21448863636364 6.21448863636363  C 5.10179924242424 7.32717803030303  4.54545454545455 8.66477272727273  4.54545454545455 10.2272727272727  L 4.54545454545455 39.7727272727273  C 4.54545454545455 41.3352272727273  5.10179924242424 42.672821969697  6.21448863636364 43.7855113636364  C 7.32717803030303 44.8982007575758  8.66477272727273 45.4545454545455  10.2272727272727 45.4545454545455  L 39.7727272727273 45.4545454545455  C 41.3352272727273 45.4545454545455  42.672821969697 44.8982007575758  43.7855113636364 43.7855113636364  Z M 46.9992897727273 3.00071022727273  C 48.9997632575758 5.00118371212121  50 7.41003787878787  50 10.2272727272727  L 50 39.7727272727273  C 50 42.5899621212121  48.9997632575758 44.9988162878788  46.9992897727273 46.9992897727273  C 44.9988162878788 48.9997632575758  42.5899621212121 50  39.7727272727273 50  L 10.2272727272727 50  C 7.41003787878788 50  5.00118371212121 48.9997632575758  3.00071022727273 46.9992897727273  C 1.00023674242424 44.9988162878788  0 42.5899621212121  0 39.7727272727273  L 0 10.2272727272727  C 0 7.41003787878787  1.00023674242424 5.00118371212121  3.00071022727273 3.00071022727273  C 5.00118371212121 1.00023674242424  7.41003787878788 0  10.2272727272727 0  L 39.7727272727273 0  C 42.5899621212121 0  44.9988162878788 1.00023674242424  46.9992897727273 3.00071022727273  Z " fill-rule="nonzero" fill="#000000" stroke="none" transform="matrix(1 0 0 1 49 393 )" />
  </g>
</svg>